<?xml version="1.0" encoding="UTF-8" standalone="no"?>
<!DOCTYPE svg PUBLIC "-//W3C//DTD SVG 1.1//EN" "http://www.w3.org/Graphics/SVG/1.1/DTD/svg11.dtd">
<svg width="100%" height="100%" viewBox="0 0 32 32" version="1.1" xmlns="http://www.w3.org/2000/svg" xmlns:xlink="http://www.w3.org/1999/xlink" xml:space="preserve" xmlns:serif="http://www.serif.com/" style="fill-rule:evenodd;clip-rule:evenodd;stroke-linecap:round;stroke-linejoin:round;stroke-miterlimit:1.5;">
    <path d="M8,1L8,8L1,8L1,1L8,1ZM7,2L2,2L2,7L7,7L7,2Z" style="fill:rgb(39,39,208);"/>
    <g>
        <path d="M20.05,8C15.55,8 11.05,8.562 11.05,12.5L11.05,23C11.05,25.171 12.879,27 15.05,27L13.05,29L13.05,30L15.05,30L18.05,27L22.05,27L25.05,30L27.05,30L27.05,29L25.05,27C27.221,27 29.05,25.171 29.05,23L29.05,12.5C29.05,8.562 25.023,8 20.05,8Z" style="fill:rgb(204,204,204);fill-rule:nonzero;"/>
        <circle cx="16.05" cy="23" r="2" style="fill:white;"/>
        <circle cx="24.05" cy="23" r="2" style="fill:white;"/>
        <rect x="13.05" y="12" width="6" height="5" style="fill:white;"/>
        <rect x="21.05" y="12" width="6" height="5" style="fill:white;"/>
    </g>
    <g id="scale">
        <path d="M12.05,11L28.05,27" style="fill:none;stroke:rgb(255,216,74);stroke-width:2px;"/>
        <path d="M12.05,9L14.05,11L12.05,13L10.05,11L12.05,9Z" style="fill:rgb(61,255,48);stroke:rgb(13,209,0);stroke-width:1px;stroke-linecap:butt;"/>
        <path d="M28.05,25L30.05,27L28.05,29L26.05,27L28.05,25Z" style="fill:rgb(61,255,48);stroke:rgb(13,209,0);stroke-width:1px;stroke-linecap:butt;"/>
    </g>
    <g>
        <rect x="18.05" y="15" width="4" height="2.997" style="fill:rgb(198,198,198);"/>
        <path d="M19.05,17.997L17.05,17.997L17.05,16.997C17.05,16.187 17.318,15.453 17.813,14.913C18.312,14.369 19.05,14 20.05,14C21.05,14 21.788,14.369 22.287,14.913C22.782,15.453 23.05,16.187 23.05,16.997L23.05,17.998L21.05,17.997L21.05,16.997C21.05,16.717 20.985,16.453 20.814,16.266C20.647,16.084 20.385,16 20.05,16C19.715,16 19.453,16.084 19.286,16.266C19.115,16.453 19.05,16.717 19.05,16.997L19.05,17.997Z" style="fill:rgb(102,102,102);"/>
        <path d="M17.05,17.997L23.05,17.997C23.602,17.997 24.05,18.445 24.05,18.997L24.05,23C24.05,23.552 23.602,24 23.05,24L17.05,24C16.498,24 16.05,23.552 16.05,23L16.05,18.997C16.05,18.445 16.498,17.997 17.05,17.997Z" style="fill:rgb(102,102,102);"/>
        <circle cx="20.05" cy="20.997" r="1.1" style="fill:white;"/>
    </g>
    <g>
        <path d="M1.289,25.401L3.829,15.923L7.693,16.958L5.153,26.437C4.587,28.549 3.297,30.274 2.137,29.964C0.978,29.653 0.723,27.514 1.289,25.401Z" style="fill:rgb(198,198,198);"/>
        <path d="M1.289,25.401L3.829,15.923L7.693,16.958L5.153,26.437C4.587,28.549 3.297,30.274 2.137,29.964C0.978,29.653 0.723,27.514 1.289,25.401ZM2.255,25.66C2.013,26.566 1.935,27.477 2.053,28.196C2.09,28.421 2.145,28.624 2.229,28.791C2.276,28.883 2.311,28.975 2.396,28.998C2.482,29.021 2.558,28.959 2.644,28.902C2.8,28.8 2.949,28.652 3.094,28.475C3.556,27.912 3.944,27.084 4.187,26.178L6.468,17.665L4.536,17.148L2.255,25.66Z" style="fill:rgb(102,102,102);"/>
        <path d="M8.788,16.734L8.529,17.7L2.734,16.147L2.993,15.181L8.788,16.734Z" style="fill:none;stroke:rgb(102,102,102);stroke-width:1px;"/>
        <path d="M4.606,13.025C4.796,12.314 5.989,11.325 7.055,11.611C8.121,11.897 8.66,13.35 8.469,14.061L7.693,16.958L3.829,15.923L4.606,13.025Z" style="fill:rgb(102,102,102);"/>
        <path d="M4.606,13.025C4.796,12.314 5.989,11.325 7.055,11.611C8.121,11.897 8.66,13.35 8.469,14.061L7.693,16.958L3.829,15.923L4.606,13.025ZM5.571,13.284L5.054,15.216L6.986,15.734L7.503,13.802C7.551,13.625 7.46,13.366 7.339,13.124C7.221,12.887 7.055,12.646 6.796,12.577C6.538,12.508 6.273,12.633 6.053,12.779C5.826,12.928 5.619,13.108 5.571,13.284Z" style="fill:rgb(102,102,102);"/>
    </g>
</svg>
