<?xml version="1.0" encoding="UTF-8" standalone="no"?>
<!DOCTYPE svg PUBLIC "-//W3C//DTD SVG 1.1//EN" "http://www.w3.org/Graphics/SVG/1.1/DTD/svg11.dtd">
<svg width="100%" height="100%" viewBox="0 0 32 32" version="1.1" xmlns="http://www.w3.org/2000/svg" xmlns:xlink="http://www.w3.org/1999/xlink" xml:space="preserve" xmlns:serif="http://www.serif.com/" style="fill-rule:evenodd;clip-rule:evenodd;stroke-linecap:round;stroke-linejoin:round;stroke-miterlimit:1.5;">
    <g transform="matrix(0.875,0,0,0.875,-2.5,0.125)">
        <path d="M12,1L12,9L4,9L4,1L12,1ZM10.857,2.143L5.143,2.143L5.143,7.857L10.857,7.857L10.857,2.143Z" style="fill:rgb(39,39,208);"/>
    </g>
    <g id="train">
        <g transform="matrix(1.125,0,0,1.125,5.5,5.75)">
            <path d="M12,2C8,2 4,2.5 4,6L4,15.333C4,17.263 5.626,18.889 7.556,18.889L5.778,20.667L5.778,21.556L7.556,21.556L10.222,18.889L13.778,18.889L16.444,21.556L18.222,21.556L18.222,20.667L16.444,18.889C18.374,18.889 20,17.263 20,15.333L20,6C20,2.5 16.42,2 12,2Z" style="fill:rgb(178,179,179);fill-rule:nonzero;"/>
        </g>
        <g transform="matrix(1.33333,0,0,1.33333,-0.333333,-4.33333)">
            <circle cx="11.5" cy="20.5" r="1.5" style="fill:white;"/>
        </g>
        <g transform="matrix(1.33333,0,0,1.33333,7.66667,-4.33333)">
            <circle cx="11.5" cy="20.5" r="1.5" style="fill:white;"/>
        </g>
        <g transform="matrix(1,0,0,1,3,3)">
            <rect x="9" y="9" width="6" height="5" style="fill:white;"/>
        </g>
        <g transform="matrix(1,0,0,1,3,3)">
            <rect x="17" y="9" width="6" height="5" style="fill:white;"/>
        </g>
    </g>
    <g transform="matrix(0.240002,0,0,0.24001,-9.00009e-05,0.99904)">
        <rect x="4.167" y="100" width="33.333" height="8.333" style="fill:rgb(39,39,208);"/>
    </g>
    <g transform="matrix(0.240002,0,0,0.24001,-9.00009e-05,0.9994)">
        <rect x="4.167" y="70.833" width="33.333" height="8.333" style="fill:rgb(39,39,208);"/>
    </g>
    <g transform="matrix(0.24001,0,0,0.240002,-0.00024001,0.99979)">
        <rect x="16.667" y="87.5" width="8.333" height="33.333" style="fill:rgb(39,39,208);"/>
    </g>
    <g id="oeface" transform="matrix(0.154285,0,0,0.154285,8.71434,9.07143)">
        <g transform="matrix(1,0,0,1,-2.13163e-14,-10.1855)">
            <path d="M73.148,22.686L8.333,61.575L60.185,126.389L125,61.574L73.148,22.686Z" style="fill:rgb(198,198,198);stroke:rgb(51,51,51);stroke-width:9.72px;"/>
        </g>
        <g transform="matrix(1,0,0,1,4.26326e-14,-10.563)">
            <path d="M66.666,48.989L86.111,68.434L66.666,87.878L47.222,68.434L66.666,48.989Z" style="fill:rgb(48,117,255);stroke:rgb(0,70,209);stroke-width:6.25px;stroke-linecap:butt;"/>
        </g>
    </g>
</svg>
