<?xml version="1.0" encoding="UTF-8" standalone="no"?>
<!DOCTYPE svg PUBLIC "-//W3C//DTD SVG 1.1//EN" "http://www.w3.org/Graphics/SVG/1.1/DTD/svg11.dtd">
<svg width="100%" height="100%" viewBox="0 0 32 32" version="1.1" xmlns="http://www.w3.org/2000/svg" xmlns:xlink="http://www.w3.org/1999/xlink" xml:space="preserve" xmlns:serif="http://www.serif.com/" style="fill-rule:evenodd;clip-rule:evenodd;stroke-linecap:round;stroke-linejoin:round;stroke-miterlimit:1.5;">
    <g transform="matrix(0.239999,0,0,0.239999,8.5714e-05,8.5714e-05)">
        <path d="M66.667,8.333C41.667,8.333 16.667,12.453 16.667,33.333L16.667,83.333C16.667,95.833 29.167,108.333 41.667,108.333L29.167,120.833L29.167,125L41.667,125L58.333,108.333L75,108.333L91.667,125L104.167,125L104.167,120.833L91.667,108.333C104.167,108.333 116.667,95.833 116.667,83.333L116.667,33.333C116.667,12.453 95.833,8.333 66.667,8.333Z" style="fill:rgb(204,204,204);fill-rule:nonzero;"/>
        <circle cx="43.75" cy="89.583" r="10.417" style="fill:white;"/>
        <circle cx="89.583" cy="89.583" r="10.417" style="fill:white;"/>
        <rect x="29.167" y="29.167" width="33.333" height="29.167" style="fill:white;"/>
        <rect x="70.833" y="29.167" width="33.333" height="29.167" style="fill:white;"/>
    </g>
    <g id="oecenter">
        <path d="M5,5L27,27" style="fill:none;stroke:rgb(51,51,51);stroke-width:3px;"/>
        <g transform="matrix(2.5,0,0,2.5,-81.5,-4)">
            <circle cx="39" cy="8" r="1" style="fill:rgb(48,239,255);stroke:rgb(0,209,209);stroke-width:0.4px;stroke-linecap:butt;"/>
        </g>
    </g>
</svg>
