<?xml version="1.0" encoding="UTF-8" standalone="no"?>
<!DOCTYPE svg PUBLIC "-//W3C//DTD SVG 1.1//EN" "http://www.w3.org/Graphics/SVG/1.1/DTD/svg11.dtd">
<svg width="100%" height="100%" viewBox="0 0 24 24" version="1.1" xmlns="http://www.w3.org/2000/svg" xmlns:xlink="http://www.w3.org/1999/xlink" xml:space="preserve" xmlns:serif="http://www.serif.com/" style="fill-rule:evenodd;clip-rule:evenodd;stroke-linecap:round;stroke-linejoin:round;stroke-miterlimit:1.5;">
    <g>
        <g>
            <path d="M12,1C7.5,1 3,1.562 3,5.5L3,16C3,18.171 4.829,20 7,20L5,22L5,23L7,23L10,20L14,20L17,23L19,23L19,22L17,20C19.171,20 21,18.171 21,16L21,5.5C21,1.562 16.973,1 12,1Z" style="fill:rgb(204,204,204);fill-rule:nonzero;"/>
            <circle cx="8" cy="16" r="2" style="fill:white;"/>
            <circle cx="16" cy="16" r="2" style="fill:white;"/>
            <rect x="5" y="5" width="6" height="5" style="fill:white;"/>
            <rect x="13" y="5" width="6" height="5" style="fill:white;"/>
        </g>
        <g id="oecenter">
            <g transform="matrix(1.09191,-0.0330873,-0.0330873,1.09191,-66.2205,1.27936)">
                <path d="M63.5,3.5L80.5,20.5" style="fill:none;stroke:rgb(51,51,51);stroke-width:1.89px;"/>
            </g>
            <g transform="matrix(2,0,0,2,-66,-4)">
                <circle cx="39" cy="8" r="1" style="fill:rgb(48,239,255);stroke:rgb(0,209,209);stroke-width:0.5px;stroke-linecap:butt;"/>
            </g>
        </g>
    </g>
</svg>
