<?xml version="1.0" encoding="UTF-8" standalone="no"?>
<!DOCTYPE svg PUBLIC "-//W3C//DTD SVG 1.1//EN" "http://www.w3.org/Graphics/SVG/1.1/DTD/svg11.dtd">
<svg width="100%" height="100%" viewBox="0 0 24 24" version="1.1" xmlns="http://www.w3.org/2000/svg" xmlns:xlink="http://www.w3.org/1999/xlink" xml:space="preserve" xmlns:serif="http://www.serif.com/" style="fill-rule:evenodd;clip-rule:evenodd;stroke-linecap:round;stroke-linejoin:round;stroke-miterlimit:1.5;">
    <g>
        <g>
            <path d="M12,1C7.5,1 3,1.562 3,5.5L3,16C3,18.171 4.829,20 7,20L5,22L5,23L7,23L10,20L14,20L17,23L19,23L19,22L17,20C19.171,20 21,18.171 21,16L21,5.5C21,1.562 16.973,1 12,1Z" style="fill:rgb(204,204,204);fill-rule:nonzero;"/>
            <circle cx="8" cy="16" r="2" style="fill:white;"/>
            <circle cx="16" cy="16" r="2" style="fill:white;"/>
            <rect x="5" y="5" width="6" height="5" style="fill:white;"/>
            <rect x="13" y="5" width="6" height="5" style="fill:white;"/>
        </g>
        <g id="oeflow">
            <path d="M3,8L12,12L16,21" style="fill:none;stroke:rgb(51,51,51);stroke-width:2px;"/>
            <g transform="matrix(0.666667,0,0,0.666667,4,4)">
                <circle cx="12" cy="12" r="3" style="fill:rgb(61,255,48);stroke:rgb(13,209,0);stroke-width:1.5px;stroke-linecap:butt;"/>
            </g>
            <g transform="matrix(0.769625,0,0,0.769625,5.29861,0.230375)">
                <path d="M21.701,8.796L23,1L15.204,2.299L21.701,8.796Z" style="fill:rgb(48,117,255);"/>
            </g>
            <path d="M19.436,4.564C16.922,7.078 14,10 14,10" style="fill:none;stroke:rgb(48,117,255);stroke-width:2px;"/>
        </g>
    </g>
</svg>
