<?xml version="1.0" encoding="UTF-8" standalone="no"?>
<!DOCTYPE svg PUBLIC "-//W3C//DTD SVG 1.1//EN" "http://www.w3.org/Graphics/SVG/1.1/DTD/svg11.dtd">
<svg width="100%" height="100%" viewBox="0 0 16 16" version="1.1" xmlns="http://www.w3.org/2000/svg" xmlns:xlink="http://www.w3.org/1999/xlink" xml:space="preserve" xmlns:serif="http://www.serif.com/" style="fill-rule:evenodd;clip-rule:evenodd;stroke-linejoin:round;stroke-miterlimit:1.5;">
    <g transform="matrix(1,0,0,1,-120,-30)">
        <g id="axes_16" transform="matrix(0.666667,0,0,0.666667,120,30)">
            <rect x="0" y="0" width="24" height="24" style="fill:none;"/>
            <g transform="matrix(1.125,0,0,1.10526,-1.5,-0.710526)">
                <path d="M12,2C8,2 4,2.5 4,6L4,15.5C4,17.43 5.57,19 7.5,19L6,20.5L6,21L8.23,21L10.23,19L14,19L16,21L18,21L18,20.5L16.5,19C18.43,19 20,17.43 20,15.5L20,6C20,2.5 16.42,2 12,2ZM7.5,17C6.67,17 6,16.33 6,15.5C6,14.67 6.67,14 7.5,14C8.33,14 9,14.67 9,15.5C9,16.33 8.33,17 7.5,17ZM11,10L6,10L6,6L11,6L11,10ZM13,10L13,6L18,6L18,10L13,10ZM16.5,17C15.67,17 15,16.33 15,15.5C15,14.67 15.67,14 16.5,14C17.33,14 18,14.67 18,15.5C18,16.33 17.33,17 16.5,17Z" style="fill:rgb(178,179,179);fill-rule:nonzero;"/>
            </g>
            <g transform="matrix(0.979412,0.0794118,0.0794118,0.979412,-59.4706,-5.47059)">
                <path d="M63.5,3.5L80.5,20.5" style="fill:none;stroke:rgb(255,216,74);stroke-width:2.83px;"/>
            </g>
            <g transform="matrix(0.53033,0.53033,-0.53033,0.53033,-43.9797,-48.2223)">
                <rect x="92" y="2" width="4" height="4" style="fill:rgb(61,255,48);stroke:rgb(13,209,0);stroke-width:2px;"/>
            </g>
            <g transform="matrix(0.53033,0.53033,-0.53033,0.53033,-27.4797,-31.7223)">
                <rect x="92" y="2" width="4" height="4" style="fill:rgb(61,255,48);stroke:rgb(13,209,0);stroke-width:2px;"/>
            </g>
            <g transform="matrix(1,0,0,1,-7.5,6.76026)">
                <g transform="matrix(1.2,3.09056e-17,-3.63059e-17,-1.04996,-131.85,25.3429)">
                    <path d="M124.25,18.423L124.25,20.566C124.25,21.278 124.877,21.994 125.5,21.994L126.75,21.994C127.373,21.994 128,21.278 128,20.566L128,18.423" style="fill:none;stroke:rgb(102,102,102);stroke-width:1.33px;"/>
                </g>
                <g transform="matrix(0.9,0,0,0.744871,-93.45,-8.15768)">
                    <rect x="123" y="18" width="5" height="4" style="fill:rgb(102,102,102);stroke:rgb(102,102,102);stroke-width:1.82px;"/>
                </g>
            </g>
        </g>
    </g>
</svg>
