<?xml version="1.0" encoding="UTF-8" standalone="no"?>
<!DOCTYPE svg PUBLIC "-//W3C//DTD SVG 1.1//EN" "http://www.w3.org/Graphics/SVG/1.1/DTD/svg11.dtd">
<svg width="100%" height="100%" viewBox="0 0 24 24" version="1.1" xmlns="http://www.w3.org/2000/svg" xmlns:xlink="http://www.w3.org/1999/xlink" xml:space="preserve" xmlns:serif="http://www.serif.com/" style="fill-rule:evenodd;clip-rule:evenodd;stroke-linejoin:round;stroke-miterlimit:1.5;">
    <g transform="matrix(1,0,0,1,-30,0)">
        <g id="Artboard1" transform="matrix(1,0,0,1,30,0)">
            <rect x="0" y="0" width="24" height="24" style="fill:none;"/>
            <g transform="matrix(1.15789,0,0,1.15789,-1.89474,-1.31579)">
                <path d="M12,2C8,2 4,2.5 4,6L4,15.5C4,17.43 5.57,19 7.5,19L6,20.5L6,21L8.23,21L10.23,19L14,19L16,21L18,21L18,20.5L16.5,19C18.43,19 20,17.43 20,15.5L20,6C20,2.5 16.42,2 12,2ZM7.5,17C6.67,17 6,16.33 6,15.5C6,14.67 6.67,14 7.5,14C8.33,14 9,14.67 9,15.5C9,16.33 8.33,17 7.5,17ZM11,10L6,10L6,6L11,6L11,10ZM13,10L13,6L18,6L18,10L13,10ZM16.5,17C15.67,17 15,16.33 15,15.5C15,14.67 15.67,14 16.5,14C17.33,14 18,14.67 18,15.5C18,16.33 17.33,17 16.5,17Z" style="fill:rgb(178,179,179);fill-rule:nonzero;"/>
            </g>
            <g transform="matrix(1.04489,0.0448916,0.0448916,1.04489,-63.7709,-3.7709)">
                <path d="M63.5,3.5L80.5,20.5" style="fill:none;stroke:rgb(51,51,51);stroke-width:2.75px;"/>
            </g>
            <g transform="matrix(2,0,0,2,-66,-4)">
                <circle cx="39" cy="8" r="1" style="fill:rgb(48,239,255);stroke:rgb(0,209,209);stroke-width:0.5px;"/>
            </g>
        </g>
    </g>
</svg>
